<?xml version="1.0" encoding="UTF-8" standalone="no"?>
<svg
   viewBox="0 0 640 640"
   version="1.1"
   id="svg1"
   sodipodi:docname="download-solid-full.svg"
   inkscape:export-filename="download-solid-full.png"
   inkscape:export-xdpi="96"
   inkscape:export-ydpi="96"
   inkscape:version="1.4.4 (dcaf3e7d9e, 2026-05-05)"
   xmlns:inkscape="http://www.inkscape.org/namespaces/inkscape"
   xmlns:sodipodi="http://sodipodi.sourceforge.net/DTD/sodipodi-0.dtd"
   xmlns="http://www.w3.org/2000/svg"
   xmlns:svg="http://www.w3.org/2000/svg">
  <defs
     id="defs1" />
  <sodipodi:namedview
     id="namedview1"
     pagecolor="#ffffff"
     bordercolor="#000000"
     borderopacity="0.25"
     inkscape:showpageshadow="2"
     inkscape:pageopacity="0.0"
     inkscape:pagecheckerboard="0"
     inkscape:deskcolor="#d1d1d1"
     inkscape:zoom="1.2546875"
     inkscape:cx="320.39851"
     inkscape:cy="320"
     inkscape:window-width="1854"
     inkscape:window-height="1011"
     inkscape:window-x="1146"
     inkscape:window-y="32"
     inkscape:window-maximized="1"
     inkscape:current-layer="svg1" />
  <!--!Font Awesome Free 7.2.0 by @fontawesome - https://fontawesome.com License - https://fontawesome.com/license/free Copyright 2026 Fonticons, Inc.-->
  <path
     d="M352 96C352 78.3 337.7 64 320 64C302.3 64 288 78.3 288 96L288 306.7L246.6 265.3C234.1 252.8 213.8 252.8 201.3 265.3C188.8 277.8 188.8 298.1 201.3 310.6L297.3 406.6C309.8 419.1 330.1 419.1 342.6 406.6L438.6 310.6C451.1 298.1 451.1 277.8 438.6 265.3C426.1 252.8 405.8 252.8 393.3 265.3L352 306.7L352 96zM160 384C124.7 384 96 412.7 96 448L96 480C96 515.3 124.7 544 160 544L480 544C515.3 544 544 515.3 544 480L544 448C544 412.7 515.3 384 480 384L433.1 384L376.5 440.6C345.3 471.8 294.6 471.8 263.4 440.6L206.9 384L160 384zM464 440C477.3 440 488 450.7 488 464C488 477.3 477.3 488 464 488C450.7 488 440 477.3 440 464C440 450.7 450.7 440 464 440z"
     id="path1" />
</svg>
